<svg width="56" height="66" viewBox="0 0 56 66" fill="none" xmlns="http://www.w3.org/2000/svg">
<path d="M28 50.8032H43.9888C47.9185 50.8032 50.3142 45.9688 48.2315 42.2418L46.7618 39.6119M28 50.8032L31.7524 46.6065M28 50.8032L31.7524 55M40.5079 28.4205L32.2427 13.63C30.2831 10.1233 25.7169 10.1233 23.7573 13.63L21.7461 17.2291M40.5079 28.4205L35.5047 27.0216M40.5079 28.4205L41.7587 22.8248M15.4921 28.4205L7.76849 42.2418C5.68577 45.9688 8.0815 50.8032 12.0112 50.8032H15.4921M15.4921 28.4205L16.7429 34.0162M15.4921 28.4205L10.489 29.8194" stroke="#121A26" stroke-width="2" stroke-linecap="round" stroke-linejoin="round"/>
</svg>
